P3
10 10
255
0 0 0 0 0 0 0 0 0 0 0 0 0 0 0 0 0 0 0 0 0 0 0 0 0 0 0 0 0 0 0 0 0 0 0
0 13 18 23 0 0 0 0 0 0 0 0 0 0 0 0 0 0 0 0 0 0 0 0 0 0 0 0 0 0 0 101
141 184 76 106 138 0 0 0 0 0 0 0 0 0 0 0 0 0 0 0 0 0 0 0 0 0 13 18 23
114 159 207 114 159 207 101 141 184 13 18 23 0 0 0 0 0 0 0 0 0 0 0 0 0
0 0 51 71 92 114 159 207 114 159 207 114 159 207 114 159 207 51 71 92
0 0 0 0 0 0 0 0 0 0 0 0 89 124 161 114 159 207 114 159 207 114 159 207
114 159 207 114 159 207 76 106 138 0 0 0 0 0 0 0 0 0 114 159 207 114
159 207 114 159 207 114 159 207 89 124 161 51 71 92 13 18 23 0 0 0 0 0
0 38 53 69 114 159 207 101 141 184 63 88 115 13 18 23 0 0 0 0 0 0 0 0
0 0 0 0 0 0 0 51 71 92 25 35 46 0 0 0 0 0 0 0 0 0 0 0 0 0 0 0 0 0 0 0
0 0 0 0 0 0 0 0 0 0 0 0 0 0 0 0 0 0 0 0 0 0 0 0 0 0 0 0 0 0 0 0 0 0 0
